<?xml version="1.0" encoding="UTF-8" standalone="no"?>
<!DOCTYPE svg PUBLIC "-//W3C//DTD SVG 1.1//EN" "http://www.w3.org/Graphics/SVG/1.1/DTD/svg11.dtd">
<svg version="1.1" xmlns="http://www.w3.org/2000/svg" xmlns:xlink="http://www.w3.org/1999/xlink" preserveAspectRatio="xMidYMid meet" viewBox="0 0 50 33" width="50" height="33"><defs><path d="M209.08 103.96C192.44 77.84 182.04 61.52 177.89 54.99C177.6 54.54 176.95 54.54 176.65 54.98C172.3 61.51 161.43 77.84 144.04 103.96L209.08 103.96Z" id="c18J8tlD1O"></path><path d="M28.92 4.6C26.91 1.9 22.86 1.91 20.86 4.61C16.97 9.86 7.05 23.28 2.59 29.3C2.11 29.94 2.57 30.85 3.37 30.85C12.39 30.85 37.67 30.85 46.73 30.85C47.45 30.85 47.86 30.03 47.43 29.46C42.92 23.4 32.83 9.85 28.92 4.6Z" id="a9bHEk7Hy"></path></defs><g><g><g><g><use xlink:href="#c18J8tlD1O" opacity="1" fill-opacity="0" stroke="#000000" stroke-width="2" stroke-opacity="1"></use></g></g><g><g><use xlink:href="#a9bHEk7Hy" opacity="1" fill-opacity="0" stroke="#ffffff" stroke-width="3" stroke-opacity="1"></use></g></g></g></g></svg>