<svg width="256.19375px" height="135.21754150390626px" xmlns="http://www.w3.org/2000/svg" viewBox="121.90312499999999 7.391229248046869 256.19375 135.21754150390626" style="background: rgba(0, 0, 0, 0);" preserveAspectRatio="xMidYMid"><defs>
  <filter id="editing-scratch" x="-100%" y="-100%" width="300%" height="300%">
    <!-- COLOR -->
    <feFlood flood-color="#ddd" flood-opacity="0.75" result="COLOR-blu"></feFlood>
    <feFlood flood-color="#666" flood-opacity="0.4" result="COLOR-red"></feFlood>
    <!-- COLOR END -->

    <!-- Texture -->
    <feTurbulence baseFrequency=".05" type="fractalNoise" numOctaves="3" seed="0" result="Texture_10"></feTurbulence>
    <feColorMatrix type="matrix" values="0 0 0 0 0,
    0 0 0 0 0,
    0 0 0 0 0,
    0 0 0 -2.1 1.1" in="Texture_10" result="Texture_20"></feColorMatrix>

    <feColorMatrix result="Texture_30" type="matrix" values="0 0 0 0 0,
    0 0 0 0 0,
    0 0 0 0 0,
    0 0 0 -1.7 1.8" in="Texture_10"></feColorMatrix>
    <!-- Texture -->

    <!-- FILL -->
    <feOffset dx="-3" dy="4" in="SourceAlpha" result="FILL_10"></feOffset>
    <feDisplacementMap scale="17" in="FILL_10" in2="Texture_10" result="FILL_20"></feDisplacementMap>
    <feComposite operator="in" in="Texture_30" in2="FILL_20" result="FILL_40"></feComposite>
    <feComposite operator="in" in="COLOR-blu" in2="FILL_40" result="FILL_50"></feComposite>
    <!-- FILL END-->

    <!-- OUTLINE -->
    <feMorphology operator="dilate" radius="3" in="SourceGraphic" result="OUTLINE_10"></feMorphology>
    <feComposite operator="out" in="OUTLINE_10" in2="SourceGraphic" result="OUTLINE_20"></feComposite>
    <feDisplacementMap scale="7" in="OUTLINE_20" in2="Texture_10" result="OUTLINE_30"></feDisplacementMap>
    <feComposite operator="arithmetic" k2="-1" k3="1" in="Texture_20" in2="OUTLINE_30" result="OUTLINE_40"></feComposite>
    <!-- OUTLINE END-->

    <!-- BEVEL OUTLINE -->
    <feConvolveMatrix order="8,8" divisor="1" kernelMatrix="1 0 0 0 0 0 0 0 0 1 0 0 0 0 0 0 0 0 1 0 0 0 0 0 0 0 0 1 0 0 0 0 0 0 0 0 1 0 0 0 0 0 0 0 0 1 0 0 0 0 0 0 0 0 1 0 0 0 0 0 0 0 0 1 " in="SourceGraphic" result="BEVEL_10"></feConvolveMatrix>
    <feMorphology operator="dilate" radius="2" in="BEVEL_10" result="BEVEL_20"></feMorphology>
    <feComposite operator="out" in="BEVEL_20" in2="BEVEL_10" result="BEVEL_30"></feComposite>
    <feDisplacementMap scale="7" in="BEVEL_30" in2="Texture_10" result="BEVEL_40"></feDisplacementMap>
    <feComposite operator="arithmetic" k2="-1" k3="1" in="Texture_20" in2="BEVEL_40" result="BEVEL_50"></feComposite>
    <feOffset dx="-7" dy="-7" in="BEVEL_50" result="BEVEL_60"></feOffset>
    <feComposite operator="out" in="BEVEL_60" in2="OUTLINE_10" result="BEVEL_70"></feComposite>
    <!-- BEVEL OUTLINE END -->

    <!-- BEVEL FILL -->
    <feOffset dx="-9" dy="-9" in="BEVEL_10" result="BEVEL-FILL_10"></feOffset>
    <feComposite operator="out" in="BEVEL-FILL_10" in2="OUTLINE_10" result="BEVEL-FILL_20"></feComposite>
    <feDisplacementMap scale="17" in="BEVEL-FILL_20" in2="Texture_10" result="BEVEL-FILL_30"></feDisplacementMap>
    <feComposite operator="in" in="COLOR-red" in2="BEVEL-FILL_30" result="BEVEL-FILL_50"></feComposite> <!-- -->
    <!-- BEVEL FILL END-->

    <feMerge result="merge2">
     <feMergeNode in="BEVEL-FILL_50"></feMergeNode>
     <feMergeNode in="BEVEL_70"></feMergeNode>
     <feMergeNode in="FILL_50"></feMergeNode>
      <feMergeNode in="OUTLINE_40"></feMergeNode>
    </feMerge>
  </filter>
</defs>
<g filter="url(#editing-scratch)"><g transform="translate(164.72406244277954, 102.23500061035156)"><path d="M4.16-14.97L2.94-15.28L2.94-15.28Q3.94-18.22 5.09-19.67L5.09-19.67L5.09-19.67Q6.25-21.13 7.81-21.13L7.81-21.13L7.81-21.13Q8.50-21.13 9.11-20.81L9.11-20.81L9.11-20.81Q9.72-20.50 10.19-19.80L10.19-19.80L10.19-19.80Q10.66-19.09 10.92-17.97L10.92-17.97L10.92-17.97Q11.19-16.84 11.19-15.22L11.19-15.22L11.19-15.22Q12.59-18.81 14.03-20.34L14.03-20.34L14.03-20.34Q15.47-21.88 17.16-21.88L17.16-21.88L17.16-21.88Q17.78-21.88 18.42-21.63L18.42-21.63L18.42-21.63Q19.06-21.38 19.58-20.73L19.58-20.73L19.58-20.73Q20.09-20.09 20.44-19L20.44-19L20.44-19Q20.78-17.91 20.81-16.25L20.81-16.25L20.81-16.25Q21.66-17.91 22.92-18.94L22.92-18.94L22.92-18.94Q24.19-19.97 25.72-19.97L25.72-19.97L25.72-19.97Q26.47-19.97 27.22-19.70L27.22-19.70L27.22-19.70Q27.97-19.44 28.55-18.81L28.55-18.81L28.55-18.81Q29.13-18.19 29.50-17.17L29.50-17.17L29.50-17.17Q29.88-16.16 29.88-14.66L29.88-14.66L29.88-14.66Q29.88-14.22 29.81-13.52L29.81-13.52L29.81-13.52Q29.75-12.81 29.66-11.97L29.66-11.97L29.66-11.97Q29.56-11.13 29.47-10.25L29.47-10.25L29.47-10.25Q29.38-9.38 29.28-8.61L29.28-8.61L29.28-8.61Q29.19-7.84 29.13-7.27L29.13-7.27L29.13-7.27Q29.06-6.69 29.06-6.47L29.06-6.47L29.06-6.47Q29.06-4.63 29.50-3.78L29.50-3.78L29.50-3.78Q29.94-2.94 31.09-2.94L31.09-2.94L31.09-2.94Q31.97-2.94 32.88-3.98L32.88-3.98L32.88-3.98Q33.78-5.03 34.72-6.75L34.72-6.75L34.72-6.75Q35.66-8.47 36.63-10.69L36.63-10.69L36.63-10.69Q37.59-12.91 38.59-15.28L38.59-15.28L39.81-14.97L39.81-14.97Q38.91-12.81 37.94-10.41L37.94-10.41L37.94-10.41Q36.97-8 35.83-5.97L35.83-5.97L35.83-5.97Q34.69-3.94 33.38-2.61L33.38-2.61L33.38-2.61Q32.06-1.28 30.47-1.28L30.47-1.28L30.47-1.28Q28.63-1.28 27.66-2.38L27.66-2.38L27.66-2.38Q26.69-3.47 26.69-6.03L26.69-6.03L26.69-6.03Q26.69-7.16 26.84-8.42L26.84-8.42L26.84-8.42Q27-9.69 27.20-10.95L27.20-10.95L27.20-10.95Q27.41-12.22 27.56-13.42L27.56-13.42L27.56-13.42Q27.72-14.63 27.72-15.63L27.72-15.63L27.72-15.63Q27.72-16.19 27.63-16.75L27.63-16.75L27.63-16.75Q27.53-17.31 27.30-17.77L27.30-17.77L27.30-17.77Q27.06-18.22 26.67-18.48L26.67-18.48L26.67-18.48Q26.28-18.75 25.66-18.75L25.66-18.75L25.66-18.75Q24.88-18.75 24.16-18L24.16-18L24.16-18Q23.44-17.25 22.78-16L22.78-16L22.78-16Q22.13-14.75 21.56-13.14L21.56-13.14L21.56-13.14Q21-11.53 20.56-9.83L20.56-9.83L20.56-9.83Q20.13-8.13 19.78-6.45L19.78-6.45L19.78-6.45Q19.44-4.78 19.25-3.41L19.25-3.41L17.03-3.78L17.03-3.78Q17.03-3.78 17.19-4.55L17.19-4.55L17.19-4.55Q17.34-5.31 17.55-6.52L17.55-6.52L17.55-6.52Q17.75-7.72 18-9.23L18-9.23L18-9.23Q18.25-10.75 18.45-12.28L18.45-12.28L18.45-12.28Q18.66-13.81 18.80-15.22L18.80-15.22L18.80-15.22Q18.94-16.63 18.94-17.59L18.94-17.59L18.94-17.59Q18.94-18.91 18.44-19.75L18.44-19.75L18.44-19.75Q17.94-20.59 16.97-20.59L16.97-20.59L16.97-20.59Q16.06-20.59 15.23-19.56L15.23-19.56L15.23-19.56Q14.41-18.53 13.69-16.86L13.69-16.86L13.69-16.86Q12.97-15.19 12.34-13.08L12.34-13.08L12.34-13.08Q11.72-10.97 11.19-8.83L11.19-8.83L11.19-8.83Q10.66-6.69 10.25-4.72L10.25-4.72L10.25-4.72Q9.84-2.75 9.53-1.34L9.53-1.34L7.44-1.84L7.44-1.84Q7.88-4 8.22-6.22L8.22-6.22L8.22-6.22Q8.53-8.13 8.78-10.41L8.78-10.41L8.78-10.41Q9.03-12.69 9.03-14.84L9.03-14.84L9.03-14.84Q9.03-16.22 8.97-17.14L8.97-17.14L8.97-17.14Q8.91-18.06 8.72-18.63L8.72-18.63L8.72-18.63Q8.53-19.19 8.20-19.42L8.20-19.42L8.20-19.42Q7.88-19.66 7.38-19.66L7.38-19.66L7.38-19.66Q6.59-19.66 5.78-18.53L5.78-18.53L5.78-18.53Q4.97-17.41 4.16-14.97L4.16-14.97ZM49.88 0.38L49.88-0.72L49.88-0.72Q49.88-4.72 50.25-8.19L50.25-8.19L50.25-8.19Q49.28-6.44 48.38-5.31L48.38-5.31L48.38-5.31Q47.47-4.19 46.58-3.53L46.58-3.53L46.58-3.53Q45.69-2.88 44.78-2.63L44.78-2.63L44.78-2.63Q43.88-2.38 42.94-2.38L42.94-2.38L42.94-2.38Q42.19-2.38 41.23-2.61L41.23-2.61L41.23-2.61Q40.28-2.84 39.44-3.56L39.44-3.56L39.44-3.56Q38.59-4.28 38.02-5.61L38.02-5.61L38.02-5.61Q37.44-6.94 37.44-9.16L37.44-9.16L37.44-9.16Q37.44-11.47 38-13.55L38-13.55L38-13.55Q38.56-15.63 39.28-17.22L39.28-17.22L39.28-17.22Q40.09-19.09 41.16-20.69L41.16-20.69L42.31-20.28L42.31-20.28Q42.25-20.19 41.91-19.14L41.91-19.14L41.91-19.14Q41.56-18.09 41.17-16.52L41.17-16.52L41.17-16.52Q40.78-14.94 40.45-13.05L40.45-13.05L40.45-13.05Q40.13-11.16 40.13-9.41L40.13-9.41L40.13-9.41Q40.13-6.78 41.08-5.22L41.08-5.22L41.08-5.22Q42.03-3.66 43.78-3.66L43.78-3.66L43.78-3.66Q44.72-3.66 45.63-4.28L45.63-4.28L45.63-4.28Q46.53-4.91 47.41-6.02L47.41-6.02L47.41-6.02Q48.28-7.13 49.16-8.64L49.16-8.64L49.16-8.64Q50.03-10.16 50.88-11.97L50.88-11.97L50.88-11.97Q51.47-15.06 52.30-17.47L52.30-17.47L52.30-17.47Q53.13-19.88 54.03-21.56L54.03-21.56L55.19-21.25L55.19-21.25Q54.56-18.53 54.09-15.86L54.09-15.86L54.09-15.86Q53.63-13.19 53.30-10.66L53.30-10.66L53.30-10.66Q52.97-8.13 52.78-5.77L52.78-5.77L52.78-5.77Q52.59-3.41 52.50-1.34L52.50-1.34L52.50-1.34Q53.84-2.31 55.02-3.50L55.02-3.50L55.02-3.50Q56.19-4.69 57.31-6.31L57.31-6.31L57.31-6.31Q58.44-7.94 59.55-10.13L59.55-10.13L59.55-10.13Q60.66-12.31 61.84-15.28L61.84-15.28L63.06-14.97L63.06-14.97Q61.84-11.81 60.70-9.48L60.70-9.48L60.70-9.48Q59.56-7.16 58.33-5.39L58.33-5.39L58.33-5.39Q57.09-3.63 55.69-2.25L55.69-2.25L55.69-2.25Q54.28-0.88 52.50 0.38L52.50 0.38L52.50 0.38Q52.41 3.81 51.88 6.44L51.88 6.44L51.88 6.44Q51.34 9.06 50.56 11.02L50.56 11.02L50.56 11.02Q49.78 12.97 48.81 14.28L48.81 14.28L48.81 14.28Q47.84 15.59 46.88 16.41L46.88 16.41L46.88 16.41Q45.91 17.22 44.98 17.56L44.98 17.56L44.98 17.56Q44.06 17.91 43.41 17.91L43.41 17.91L43.41 17.91Q42.25 17.91 41.33 17.42L41.33 17.42L41.33 17.42Q40.41 16.94 39.75 16.16L39.75 16.16L39.75 16.16Q39.09 15.38 38.75 14.38L38.75 14.38L38.75 14.38Q38.41 13.38 38.41 12.34L38.41 12.34L38.41 12.34Q38.41 10.56 39.27 8.98L39.27 8.98L39.27 8.98Q40.13 7.41 41.56 6L41.56 6L41.56 6Q43 4.59 44.86 3.36L44.86 3.36L44.86 3.36Q46.72 2.13 48.72 1.03L48.72 1.03L48.72 1.03Q49.31 0.63 49.88 0.38L49.88 0.38ZM43.47 16.63L43.47 16.63L43.47 16.63Q44.47 16.63 45.52 15.83L45.52 15.83L45.52 15.83Q46.56 15.03 47.45 13.30L47.45 13.30L47.45 13.30Q48.34 11.56 48.98 8.83L48.98 8.83L48.98 8.83Q49.63 6.09 49.81 2.25L49.81 2.25L49.81 2.25Q49.72 2.31 49.61 2.36L49.61 2.36L49.61 2.36Q49.50 2.41 49.41 2.50L49.41 2.50L49.41 2.50Q47.81 3.50 46.25 4.70L46.25 4.70L46.25 4.70Q44.69 5.91 43.45 7.28L43.45 7.28L43.45 7.28Q42.22 8.66 41.44 10.17L41.44 10.17L41.44 10.17Q40.66 11.69 40.66 13.31L40.66 13.31L40.66 13.31Q40.66 13.88 40.86 14.47L40.86 14.47L40.86 14.47Q41.06 15.06 41.44 15.55L41.44 15.55L41.44 15.55Q41.81 16.03 42.33 16.33L42.33 16.33L42.33 16.33Q42.84 16.63 43.47 16.63ZM78.16-17.66L78.16-17.66L78.16-17.66Q77.81-16.75 77.48-15.88L77.48-15.88L77.48-15.88Q77.16-15 76.77-14.13L76.77-14.13L76.77-14.13Q76.38-13.25 75.84-12.41L75.84-12.41L75.84-12.41Q75.31-11.56 74.56-10.69L74.56-10.69L74.31-10.94L74.31-10.94Q75.13-12.91 75.75-14.97L75.75-14.97L75.75-14.97Q76.38-17.03 77-19.59L77-19.59L77-19.59Q76.84-20.03 76.72-20.34L76.72-20.34L76.72-20.34Q76.59-20.66 76.50-20.92L76.50-20.92L76.50-20.92Q76.41-21.19 76.34-21.48L76.34-21.48L76.34-21.48Q76.28-21.78 76.28-22.16L76.28-22.16L76.28-22.16Q76.28-22.66 76.42-23.27L76.42-23.27L76.42-23.27Q76.56-23.88 76.83-24.41L76.83-24.41L76.83-24.41Q77.09-24.94 77.44-25.30L77.44-25.30L77.44-25.30Q77.78-25.66 78.16-25.66L78.16-25.66L78.16-25.66Q78.59-25.66 78.86-25.45L78.86-25.45L78.86-25.45Q79.13-25.25 79.28-24.94L79.28-24.94L79.28-24.94Q79.44-24.63 79.50-24.28L79.50-24.28L79.50-24.28Q79.56-23.94 79.56-23.63L79.56-23.63L79.56-23.63Q79.56-23.16 79.45-22.55L79.45-22.55L79.45-22.55Q79.34-21.94 79.20-21.36L79.20-21.36L79.20-21.36Q79.06-20.78 78.95-20.34L78.95-20.34L78.95-20.34Q78.84-19.91 78.84-19.78L78.84-19.78L78.84-19.78Q79.09-18.94 79.70-18.06L79.70-18.06L79.70-18.06Q80.31-17.19 81.09-16.28L81.09-16.28L81.09-16.28Q81.88-15.38 82.73-14.39L82.73-14.39L82.73-14.39Q83.59-13.41 84.30-12.31L84.30-12.31L84.30-12.31Q85-11.22 85.45-9.98L85.45-9.98L85.45-9.98Q85.91-8.75 85.91-7.38L85.91-7.38L85.91-7.38Q85.91-5.41 85.33-4.19L85.33-4.19L85.33-4.19Q84.75-2.97 83.78-2.31L83.78-2.31L83.78-2.31Q85.19-2.88 86.42-4.31L86.42-4.31L86.42-4.31Q87.66-5.75 88.70-7.61L88.70-7.61L88.70-7.61Q89.75-9.47 90.64-11.50L90.64-11.50L90.64-11.50Q91.53-13.53 92.22-15.28L92.22-15.28L93.44-14.97L93.44-14.97Q92.38-12.25 91.19-9.66L91.19-9.66L91.19-9.66Q90-7.06 88.50-5.03L88.50-5.03L88.50-5.03Q87-3 85.11-1.75L85.11-1.75L85.11-1.75Q83.22-0.50 80.78-0.50L80.78-0.50L80.78-0.50Q80.13-0.50 79.45-0.61L79.45-0.61L79.45-0.61Q78.78-0.72 78.14-0.95L78.14-0.95L78.14-0.95Q77.50-1.19 76.94-1.59L76.94-1.59L76.94-1.59Q76.38-2 75.97-2.56L75.97-2.56L77-3.25L77-3.25Q77.28-2.81 77.88-2.44L77.88-2.44L77.88-2.44Q78.47-2.06 79.44-2.06L79.44-2.06L79.44-2.06Q80.38-2.06 81.08-2.45L81.08-2.45L81.08-2.45Q81.78-2.84 82.27-3.52L82.27-3.52L82.27-3.52Q82.75-4.19 82.98-5.09L82.98-5.09L82.98-5.09Q83.22-6 83.22-7.03L83.22-7.03L83.22-7.03Q83.22-9.16 82.61-10.69L82.61-10.69L82.61-10.69Q82-12.22 81.17-13.42L81.17-13.42L81.17-13.42Q80.34-14.63 79.48-15.63L79.48-15.63L79.48-15.63Q78.63-16.63 78.16-17.66ZM107.66-4.22L107.66-4.22L107.66-4.22Q108.69-4.22 109.61-4.80L109.61-4.80L109.61-4.80Q110.53-5.38 111.36-6.33L111.36-6.33L111.36-6.33Q112.19-7.28 112.92-8.48L112.92-8.48L112.92-8.48Q113.66-9.69 114.27-10.92L114.27-10.92L114.27-10.92Q114.88-12.16 115.36-13.30L115.36-13.30L115.36-13.30Q115.84-14.44 116.22-15.28L116.22-15.28L117.44-14.97L117.44-14.97Q117.03-13.94 116.52-12.66L116.52-12.66L116.52-12.66Q116-11.38 115.33-10.03L115.33-10.03L115.33-10.03Q114.66-8.69 113.86-7.42L113.86-7.42L113.86-7.42Q113.06-6.16 112.09-5.16L112.09-5.16L112.09-5.16Q111.13-4.16 110-3.55L110-3.55L110-3.55Q108.88-2.94 107.59-2.94L107.59-2.94L107.59-2.94Q106.34-2.94 105.09-3.47L105.09-3.47L105.09-3.47Q104.03-2.66 102.75-2.19L102.75-2.19L102.75-2.19Q101.47-1.72 99.91-1.72L99.91-1.72L99.91-1.72Q98.94-1.72 98.34-1.97L98.34-1.97L98.34-1.97Q97.75-2.22 97.42-2.58L97.42-2.58L97.42-2.58Q97.09-2.94 96.97-3.31L96.97-3.31L96.97-3.31Q96.84-3.69 96.84-3.97L96.84-3.97L96.84-3.97Q96.84-4.59 97.13-5.08L97.13-5.08L97.13-5.08Q97.41-5.56 97.88-5.91L97.88-5.91L97.88-5.91Q98.34-6.25 98.95-6.42L98.95-6.42L98.95-6.42Q99.56-6.59 100.22-6.59L100.22-6.59L100.22-6.59Q101.28-6.59 102.25-6.20L102.25-6.20L102.25-6.20Q103.22-5.81 104.13-5.38L104.13-5.38L104.13-5.38Q104.84-6.28 105.41-7.41L105.41-7.41L105.41-7.41Q105.97-8.53 106.34-9.73L106.34-9.73L106.34-9.73Q106.72-10.94 106.92-12.13L106.92-12.13L106.92-12.13Q107.13-13.31 107.13-14.34L107.13-14.34L107.13-14.34Q107.13-16.75 106.33-17.81L106.33-17.81L106.33-17.81Q105.53-18.88 104.44-18.88L104.44-18.88L104.44-18.88Q103.22-18.88 102.08-18.13L102.08-18.13L102.08-18.13Q100.94-17.38 99.77-15.78L99.77-15.78L99.77-15.78Q98.59-14.19 97.36-11.73L97.36-11.73L97.36-11.73Q96.13-9.28 94.72-5.88L94.72-5.88L94.72-5.88Q94.56-5.59 94.47-5.28L94.47-5.28L94.47-5.28Q94.38-4.97 94.22-4.69L94.22-4.69L94.22-4.69Q94.50-1 94.80 2.39L94.80 2.39L94.80 2.39Q95.09 5.78 95.09 8.44L95.09 8.44L95.09 8.44Q95.09 13.47 93.94 15.89L93.94 15.89L93.94 15.89Q92.78 18.31 90.38 18.31L90.38 18.31L90.38 18.31Q89.44 18.31 88.75 17.88L88.75 17.88L88.75 17.88Q88.06 17.44 87.61 16.69L87.61 16.69L87.61 16.69Q87.16 15.94 86.94 14.92L86.94 14.92L86.94 14.92Q86.72 13.91 86.72 12.75L86.72 12.75L86.72 12.75Q86.72 10.94 87.17 8.75L87.17 8.75L87.17 8.75Q87.63 6.56 88.38 4.20L88.38 4.20L88.38 4.20Q89.13 1.84 90.13-0.66L90.13-0.66L90.13-0.66Q91.13-3.16 92.22-5.63L92.22-5.63L92.22-5.63Q91.94-8.75 91.73-11.77L91.73-11.77L91.73-11.77Q91.53-14.78 91.53-17.59L91.53-17.59L91.53-17.59Q91.53-20.03 91.88-21.41L91.88-21.41L91.88-21.41Q92.22-22.78 92.94-22.78L92.94-22.78L92.94-22.78Q93.16-22.78 93.52-22.66L93.52-22.66L93.52-22.66Q93.88-22.53 94.19-22.27L94.19-22.27L94.19-22.27Q94.50-22 94.73-21.63L94.73-21.63L94.73-21.63Q94.97-21.25 94.97-20.75L94.97-20.75L94.97-20.75Q94.97-19.47 94.63-18.13L94.63-18.13L94.63-18.13Q94.28-16.78 93.69-15.44L93.69-15.44L93.69-15.44Q93.69-13.97 93.73-12.44L93.73-12.44L93.73-12.44Q93.78-10.91 93.88-9.34L93.88-9.34L93.88-9.34Q95.25-12.22 96.56-14.27L96.56-14.27L96.56-14.27Q97.88-16.31 99.19-17.61L99.19-17.61L99.19-17.61Q100.50-18.91 101.80-19.50L101.80-19.50L101.80-19.50Q103.09-20.09 104.44-20.09L104.44-20.09L104.44-20.09Q105.59-20.09 106.53-19.59L106.53-19.59L106.53-19.59Q107.47-19.09 108.13-18.23L108.13-18.23L108.13-18.23Q108.78-17.38 109.14-16.19L109.14-16.19L109.14-16.19Q109.50-15 109.50-13.63L109.50-13.63L109.50-13.63Q109.50-11.09 108.69-8.66L108.69-8.66L108.69-8.66Q107.88-6.22 106.25-4.47L106.25-4.47L106.25-4.47Q106.84-4.22 107.66-4.22ZM93.31 10.63L93.31 10.63L93.31 10.63Q93.31 7.88 93.13 4.95L93.13 4.95L93.13 4.95Q92.94 2.03 92.69-0.91L92.69-0.91L92.69-0.91Q90.84 3.56 89.67 7.16L89.67 7.16L89.67 7.16Q88.50 10.75 88.50 13.69L88.50 13.69L88.50 13.69Q88.50 15.09 89.03 16.09L89.03 16.09L89.03 16.09Q89.56 17.09 90.63 17.09L90.63 17.09L90.63 17.09Q91.19 17.09 91.67 16.78L91.67 16.78L91.67 16.78Q92.16 16.47 92.52 15.72L92.52 15.72L92.52 15.72Q92.88 14.97 93.09 13.72L93.09 13.72L93.09 13.72Q93.31 12.47 93.31 10.63ZM99.78-2.94L99.78-2.94L99.78-2.94Q100.75-2.94 101.59-3.31L101.59-3.31L101.59-3.31Q102.44-3.69 103.16-4.34L103.16-4.34L103.16-4.34Q102.31-4.75 101.58-5.06L101.58-5.06L101.58-5.06Q100.84-5.38 100.16-5.38L100.16-5.38L100.16-5.38Q98.97-5.38 98.52-4.92L98.52-4.92L98.52-4.92Q98.06-4.47 98.06-4.03L98.06-4.03L98.06-4.03Q98.06-3.69 98.47-3.31L98.47-3.31L98.47-3.31Q98.88-2.94 99.78-2.94ZM124.03-2.81L124.03-2.81L124.03-2.81Q125.78-2.81 127.39-4.09L127.39-4.09L127.39-4.09Q129-5.38 129.91-7.81L129.91-7.81L129.66-7.81L129.66-7.81Q127.72-7.81 126.08-8.47L126.08-8.47L126.08-8.47Q124.44-9.13 123.23-10.30L123.23-10.30L123.23-10.30Q122.03-11.47 121.34-13.11L121.34-13.11L121.34-13.11Q120.66-14.75 120.66-16.72L120.66-16.72L120.66-16.72Q120.66-17.81 120.95-18.94L120.95-18.94L120.95-18.94Q121.25-20.06 121.88-20.95L121.88-20.95L121.88-20.95Q122.50-21.84 123.50-22.41L123.50-22.41L123.50-22.41Q124.50-22.97 125.88-22.97L125.88-22.97L125.88-22.97Q127-22.97 128.09-22.52L128.09-22.52L128.09-22.52Q129.19-22.06 130.06-20.97L130.06-20.97L130.06-20.97Q130.94-19.88 131.48-18.02L131.48-18.02L131.48-18.02Q132.03-16.16 132.03-13.31L132.03-13.31L132.03-13.31Q132.03-12.25 131.94-11.20L131.94-11.20L131.94-11.20Q131.84-10.16 131.59-9.16L131.59-9.16L131.59-9.16Q132.81-9.38 133.77-9.94L133.77-9.94L133.77-9.94Q134.72-10.50 135.45-11.30L135.45-11.30L135.45-11.30Q136.19-12.09 136.75-13.11L136.75-13.11L136.75-13.11Q137.31-14.13 137.78-15.28L137.78-15.28L139-14.97L139-14.97Q138.34-13.19 137.48-11.94L137.48-11.94L137.48-11.94Q136.63-10.69 135.64-9.84L135.64-9.84L135.64-9.84Q134.66-9 133.58-8.55L133.58-8.55L133.58-8.55Q132.50-8.09 131.34-7.94L131.34-7.94L131.34-7.94Q130.91-6.41 130.19-5.06L130.19-5.06L130.19-5.06Q129.47-3.72 128.44-2.72L128.44-2.72L128.44-2.72Q127.41-1.72 126.05-1.14L126.05-1.14L126.05-1.14Q124.69-0.56 123-0.56L123-0.56L123-0.56Q121.59-0.56 120.17-1.14L120.17-1.14L120.17-1.14Q118.75-1.72 117.61-2.92L117.61-2.92L117.61-2.92Q116.47-4.13 115.77-5.95L115.77-5.95L115.77-5.95Q115.06-7.78 115.06-10.31L115.06-10.31L115.06-10.31Q115.06-11.97 115.45-13.56L115.45-13.56L115.45-13.56Q115.84-15.16 116.55-16.58L116.55-16.58L116.55-16.58Q117.25-18 118.22-19.23L118.22-19.23L118.22-19.23Q119.19-20.47 120.31-21.38L120.31-21.38L120.78-20.59L120.78-20.59Q120.06-19.94 119.41-18.97L119.41-18.97L119.41-18.97Q118.75-18 118.22-16.83L118.22-16.83L118.22-16.83Q117.69-15.66 117.38-14.36L117.38-14.36L117.38-14.36Q117.06-13.06 117.06-11.78L117.06-11.78L117.06-11.78Q117.06-9.25 117.70-7.53L117.70-7.53L117.70-7.53Q118.34-5.81 119.34-4.77L119.34-4.77L119.34-4.77Q120.34-3.72 121.59-3.27L121.59-3.27L121.59-3.27Q122.84-2.81 124.03-2.81ZM125.81-21.75L125.81-21.75L125.81-21.75Q124.97-21.75 124.25-21.39L124.25-21.39L124.25-21.39Q123.53-21.03 123-20.41L123-20.41L123-20.41Q122.47-19.78 122.16-18.91L122.16-18.91L122.16-18.91Q121.84-18.03 121.84-16.97L121.84-16.97L121.84-16.97Q121.84-15.13 122.47-13.66L122.47-13.66L122.47-13.66Q123.09-12.19 124.17-11.16L124.17-11.16L124.17-11.16Q125.25-10.13 126.69-9.58L126.69-9.58L126.69-9.58Q128.13-9.03 129.78-9.03L129.78-9.03L130.38-9.03L130.38-9.03Q130.63-10 130.72-11.06L130.72-11.06L130.72-11.06Q130.81-12.13 130.81-13.38L130.81-13.38L130.81-13.38Q130.75-15.78 130.33-17.39L130.33-17.39L130.33-17.39Q129.91-19 129.25-19.97L129.25-19.97L129.25-19.97Q128.59-20.94 127.70-21.34L127.70-21.34L127.70-21.34Q126.81-21.75 125.81-21.75ZM139.59-16.63L139.59-16.63L139.59-16.63Q139.28-15.53 138.97-14.75L138.97-14.75L138.97-14.75Q138.66-13.97 138.28-13.30L138.28-13.30L138.28-13.30Q137.91-12.63 137.45-12.02L137.45-12.02L137.45-12.02Q137-11.41 136.44-10.69L136.44-10.69L136.19-10.94L136.19-10.94Q136.91-12.78 137.45-14.41L137.45-14.41L137.45-14.41Q138-16.03 138.44-17.66L138.44-17.66L138.44-17.66Q137.94-18.38 137.58-19.45L137.58-19.45L137.58-19.45Q137.22-20.53 137.22-22.03L137.22-22.03L137.22-22.03Q137.22-23.38 137.64-24.27L137.64-24.27L137.64-24.27Q138.06-25.16 138.75-25.16L138.75-25.16L138.75-25.16Q139.13-25.16 139.45-24.81L139.45-24.81L139.45-24.81Q139.78-24.47 140-23.91L140-23.91L140-23.91Q140.22-23.34 140.34-22.61L140.34-22.61L140.34-22.61Q140.47-21.88 140.47-21.06L140.47-21.06L140.47-21.06Q140.47-20.69 140.42-20.25L140.42-20.25L140.42-20.25Q140.38-19.81 140.31-19.36L140.31-19.36L140.31-19.36Q140.25-18.91 140.16-18.48L140.16-18.48L140.16-18.48Q140.06-18.06 139.97-17.78L139.97-17.78L139.97-17.78Q140.16-17.63 140.58-17.52L140.58-17.52L140.58-17.52Q141-17.41 141.69-17.41L141.69-17.41L141.69-17.41Q142.88-17.41 143.78-17.75L143.78-17.75L143.78-17.75Q144.69-18.09 145.22-18.63L145.22-18.63L145.22-18.63Q145.69-19.38 145.95-19.78L145.95-19.78L145.95-19.78Q146.22-20.19 146.38-20.39L146.38-20.39L146.38-20.39Q146.53-20.59 146.61-20.64L146.61-20.64L146.61-20.64Q146.69-20.69 146.81-20.69L146.81-20.69L146.81-20.69Q147.16-20.69 147.38-20.50L147.38-20.50L147.38-20.50Q147.59-20.31 147.59-19.97L147.59-19.97L147.59-19.97Q147.59-19.88 147.50-19.72L147.50-19.72L147.50-19.72Q147.41-19.56 147.25-19.31L147.25-19.31L147.25-19.31Q145.94-17.41 145.19-15.13L145.19-15.13L145.19-15.13Q144.44-12.84 144.44-10.06L144.44-10.06L144.44-10.06Q144.44-6.84 145.48-5.41L145.48-5.41L145.48-5.41Q146.53-3.97 148.47-3.97L148.47-3.97L148.47-3.97Q149.53-3.97 150.50-4.61L150.50-4.61L150.50-4.61Q151.47-5.25 152.41-6.61L152.41-6.61L152.41-6.61Q153.34-7.97 154.30-10.11L154.30-10.11L154.30-10.11Q155.25-12.25 156.34-15.28L156.34-15.28L157.56-14.97L157.56-14.97Q156.22-11 155.03-8.45L155.03-8.45L155.03-8.45Q153.84-5.91 152.69-4.42L152.69-4.42L152.69-4.42Q151.53-2.94 150.31-2.36L150.31-2.36L150.31-2.36Q149.09-1.78 147.66-1.78L147.66-1.78L147.66-1.78Q146.75-1.78 145.78-2.19L145.78-2.19L145.78-2.19Q144.81-2.59 144.02-3.47L144.02-3.47L144.02-3.47Q143.22-4.34 142.72-5.73L142.72-5.73L142.72-5.73Q142.22-7.13 142.22-9.09L142.22-9.09L142.22-9.09Q142.22-10.06 142.39-11.11L142.39-11.11L142.39-11.11Q142.56-12.16 142.84-13.14L142.84-13.14L142.84-13.14Q143.13-14.13 143.47-15.05L143.47-15.05L143.47-15.05Q143.81-15.97 144.19-16.72L144.19-16.72L144.19-16.72Q143.06-16.19 141.75-16.19L141.75-16.19L141.75-16.19Q140.47-16.19 139.59-16.63ZM149.25-25.16L149.75-26.31L149.75-26.31Q150.22-26.03 150.88-25.66L150.88-25.66L150.88-25.66Q151.53-25.28 152.41-24.94L152.41-24.94L152.41-24.94Q153.28-24.59 154.36-24.30L154.36-24.30L154.36-24.30Q155.44-24 156.72-23.88L156.72-23.88L156.72-23.88Q157.16-26.69 157.84-28.95L157.84-28.95L157.84-28.95Q158.53-31.22 159.36-32.83L159.36-32.83L159.36-32.83Q160.19-34.44 161.08-35.30L161.08-35.30L161.08-35.30Q161.97-36.16 162.81-36.16L162.81-36.16L162.81-36.16Q163.78-36.16 164.19-35.41L164.19-35.41L164.19-35.41Q164.59-34.66 164.59-33.41L164.59-33.41L164.59-33.41Q164.59-32.50 164.41-31.41L164.41-31.41L164.41-31.41Q164.22-30.31 163.91-29.08L163.91-29.08L163.91-29.08Q163.59-27.84 163.16-26.52L163.16-26.52L163.16-26.52Q162.72-25.19 162.25-23.88L162.25-23.88L162.25-23.88Q165.38-24.16 168.02-24.91L168.02-24.91L168.02-24.91Q170.66-25.66 172.59-26.44L172.59-26.44L173.19-25.28L173.19-25.28Q170.63-24.31 167.88-23.55L167.88-23.55L167.88-23.55Q165.13-22.78 161.72-22.59L161.72-22.59L161.72-22.59Q160.94-20.56 160.11-18.73L160.11-18.73L160.11-18.73Q159.28-16.91 158.59-15.56L158.59-15.56L158.59-15.56Q158.63-13.81 158.80-11.77L158.80-11.77L158.80-11.77Q158.97-9.72 159.48-7.94L159.48-7.94L159.48-7.94Q160-6.16 160.95-4.97L160.95-4.97L160.95-4.97Q161.91-3.78 163.47-3.78L163.47-3.78L163.47-3.78Q164.78-3.78 165.88-4.89L165.88-4.89L165.88-4.89Q166.97-6 167.89-7.70L167.89-7.70L167.89-7.70Q168.81-9.41 169.59-11.44L169.59-11.44L169.59-11.44Q170.38-13.47 171.06-15.28L171.06-15.28L172.28-14.97L172.28-14.97Q171.84-13.84 171.34-12.44L171.34-12.44L171.34-12.44Q170.84-11.03 170.22-9.58L170.22-9.58L170.22-9.58Q169.59-8.13 168.84-6.77L168.84-6.77L168.84-6.77Q168.09-5.41 167.19-4.33L167.19-4.33L167.19-4.33Q166.28-3.25 165.19-2.61L165.19-2.61L165.19-2.61Q164.09-1.97 162.81-1.97L162.81-1.97L162.81-1.97Q161.44-1.97 160.23-2.59L160.23-2.59L160.23-2.59Q159.03-3.22 158.14-4.83L158.14-4.83L158.14-4.83Q157.25-6.44 156.73-9.20L156.73-9.20L156.73-9.20Q156.22-11.97 156.22-16.25L156.22-16.25L156.22-16.25Q156.22-19.69 156.59-22.66L156.59-22.66L156.59-22.66Q153.91-23 152.08-23.73L152.08-23.73L152.08-23.73Q150.25-24.47 149.25-25.16L149.25-25.16ZM163-34.50L163-34.50L163-34.50Q162.72-34.50 162.16-33.94L162.16-33.94L162.16-33.94Q161.59-33.38 160.97-32.11L160.97-32.11L160.97-32.11Q160.34-30.84 159.77-28.80L159.77-28.80L159.77-28.80Q159.19-26.75 158.84-23.75L158.84-23.75L159.44-23.75L160.97-23.75L160.97-23.75Q161.53-25.31 161.95-26.78L161.95-26.78L161.95-26.78Q162.38-28.25 162.69-29.52L162.69-29.52L162.69-29.52Q163-30.78 163.16-31.80L163.16-31.80L163.16-31.80Q163.31-32.81 163.31-33.47L163.31-33.47L163.31-33.47Q163.31-34.50 163-34.50ZM158.59-18.13L158.59-18.06L158.59-18.06Q159.13-19.16 159.59-20.27L159.59-20.27L159.59-20.27Q160.06-21.38 160.50-22.53L160.50-22.53L159.34-22.53L158.72-22.53L158.72-22.53Q158.66-21.53 158.63-20.42L158.63-20.42L158.63-20.42Q158.59-19.31 158.59-18.13L158.59-18.13Z" fill="#000"></path></g></g><style>text {
  font-size: 64px;
  font-family: Arial Black;
  dominant-baseline: central;
  text-anchor: middle;
}</style></svg>